<?xml version="1.0" encoding="UTF-8" standalone="no"?>
<!DOCTYPE svg PUBLIC "-//W3C//DTD SVG 1.1//EN" "http://www.w3.org/Graphics/SVG/1.1/DTD/svg11.dtd">
<svg xmlns="http://www.w3.org/2000/svg" version="1.1" viewBox="0 0 626 417">
<g stroke-width="2.00" fill="none" stroke-linecap="butt">
<path stroke="#efefe8" vector-effect="non-scaling-stroke" d="
  M 198.94 417.00
  L 222.00 416.71"
/>
<path stroke="#f9f2ea" vector-effect="non-scaling-stroke" d="
  M 222.00 416.71
  L 224.88 416.58"
/>
<path stroke="#efefe8" vector-effect="non-scaling-stroke" d="
  M 224.88 416.58
  Q 227.62 417.03 230.29 415.95
  A 1.74 1.49 -80.4 0 0 231.02 415.34
  C 233.08 412.25 235.53 409.18 236.10 405.49
  C 237.58 395.89 235.95 384.52 223.80 383.90
  A 1.38 1.37 -88.7 0 1 222.49 382.52
  C 222.48 374.22 219.18 370.14 214.29 363.75"
/>
<path stroke="#d78377" vector-effect="non-scaling-stroke" d="
  M 214.29 363.75
  C 215.17 346.42 216.31 328.79 205.93 315.37"
/>
<path stroke="#ec9689" vector-effect="non-scaling-stroke" d="
  M 205.93 315.37
  Q 201.37 307.37 195.10 300.41
  C 189.51 294.20 181.42 289.72 173.74 285.35
  C 165.43 280.61 154.39 278.44 145.18 275.85
  Q 139.20 274.17 133.02 274.66"
/>
<path stroke="#d78377" vector-effect="non-scaling-stroke" d="
  M 133.02 274.66
  Q 108.17 269.76 84.75 278.96"
/>
<path stroke="#ec9689" vector-effect="non-scaling-stroke" d="
  M 84.75 278.96
  C 71.31 284.36 57.43 292.15 46.87 302.13
  C 39.63 308.96 35.28 317.00 30.06 324.82
  C 25.52 331.64 22.55 339.26 20.64 348.20
  Q 19.34 354.29 17.51 360.24
  Q 16.83 362.45 19.46 364.25"
/>
<path stroke="#efefe8" vector-effect="non-scaling-stroke" d="
  M 19.46 364.25
  L 18.85 366.78
  A 0.48 0.47 17.6 0 1 18.22 367.10
  C 15.38 366.07 3.96 356.83 1.09 357.61
  Q 0.14 357.87 0.00 359.19"
/>
<path stroke="#f6c27a" vector-effect="non-scaling-stroke" d="
  M 504.32 4.43
  L 503.02 1.24
  A 1.21 0.50 72.0 0 0 502.37 0.48
  C 501.80 0.40 500.11 4.47 499.86 4.91
  A 0.74 0.72 19.4 0 1 499.11 5.26
  C 498.34 5.15 494.22 4.17 493.88 4.75
  A 0.89 0.47 42.1 0 0 494.18 5.58
  L 497.52 9.00
  Q 498.66 10.16 497.35 11.84
  Q 496.19 13.35 496.22 15.24
  Q 496.23 16.19 496.92 15.67
  L 501.32 12.34
  A 1.57 1.56 50.2 0 1 503.41 12.53
  Q 504.70 13.92 506.59 15.39
  C 509.21 17.43 506.44 10.56 506.39 10.36
  A 1.61 1.60 -22.5 0 1 507.12 8.62
  C 514.13 4.33 506.97 5.65 505.03 5.09
  A 1.17 1.09 85.9 0 1 504.32 4.43"
/>
<path stroke="#efefe8" vector-effect="non-scaling-stroke" d="
  M 520.87 64.97
  Q 520.53 66.52 519.22 65.33
  C 517.69 63.93 514.02 63.98 512.27 64.47
  Q 510.15 65.06 508.12 67.59
  C 504.60 71.97 501.51 74.66 502.21 79.81
  C 504.06 93.52 517.79 91.02 526.95 93.27
  C 531.70 94.44 543.74 93.88 547.61 90.48
  Q 550.91 87.58 551.19 82.24
  C 551.57 74.98 546.77 76.60 545.70 71.09
  Q 544.81 66.53 542.51 62.46"
/>
<path stroke="#88b4bf" vector-effect="non-scaling-stroke" d="
  M 542.51 62.46
  C 543.95 56.06 550.18 43.88 558.01 43.52
  C 565.69 43.16 571.32 43.73 575.64 50.61
  Q 579.11 56.12 579.29 62.25"
/>
<path stroke="#efefe8" vector-effect="non-scaling-stroke" d="
  M 579.29 62.25
  L 577.01 72.80
  A 1.77 1.15 -59.5 0 0 577.05 73.74
  C 581.30 84.23 595.15 78.96 602.77 78.38
  C 607.24 78.03 610.91 74.65 614.59 72.26
  A 1.50 1.39 -8.6 0 0 615.19 71.51
  C 617.05 66.11 615.35 60.05 609.04 59.27
  A 0.83 0.81 -6.2 0 1 608.36 58.74
  C 607.24 55.72 607.96 53.51 604.25 52.21"
/>
<path stroke="#ec9689" vector-effect="non-scaling-stroke" d="
  M 604.25 52.21
  Q 603.08 43.85 602.23 40.76
  C 595.78 17.31 559.37 15.01 542.45 25.45
  Q 520.65 38.91 520.87 64.97"
/>
<path stroke="#dd9798" vector-effect="non-scaling-stroke" d="
  M 604.25 52.21
  Q 601.94 50.92 599.30 51.37
  A 0.54 0.53 -10.9 0 1 598.69 50.97
  Q 596.62 41.88 589.08 32.88
  Q 584.23 27.09 575.47 25.78
  C 559.86 23.45 548.42 22.96 537.43 35.93
  C 533.65 40.39 529.15 44.86 527.55 50.52
  Q 526.60 53.89 525.18 60.83
  A 1.60 1.15 82.9 0 1 524.73 61.66
  L 520.87 64.97"
/>
<path stroke="#79b5ce" vector-effect="non-scaling-stroke" d="
  M 579.29 62.25
  Q 581.37 60.16 584.25 59.33
  A 0.56 0.53 -13.1 0 0 584.65 58.72
  C 581.98 44.08 567.64 32.96 553.15 39.34
  C 545.90 42.53 540.78 52.57 538.42 59.70
  A 0.62 0.56 24.5 0 0 538.72 60.39
  L 542.51 62.46"
/>
<path stroke="#f3b8c0" vector-effect="non-scaling-stroke" d="
  M 553.48 50.80
  C 548.98 54.33 547.58 61.01 546.97 66.62
  Q 546.74 68.73 548.85 68.47
  C 551.33 68.16 553.02 58.07 555.59 55.56
  C 559.65 51.61 567.14 52.40 568.15 59.06
  Q 568.67 62.52 569.09 66.05
  A 1.40 1.20 -76.0 0 0 569.52 66.91
  C 571.91 68.97 573.76 67.00 573.98 64.45
  Q 574.45 58.94 573.29 55.23
  C 570.57 46.60 559.99 45.69 553.48 50.80"
/>
<path stroke="#f6c27a" vector-effect="non-scaling-stroke" d="
  M 438.91 52.93
  L 437.48 56.71
  A 1.02 0.52 10.1 0 1 436.49 57.01
  L 431.98 56.47
  Q 430.42 56.28 431.70 57.58
  L 435.28 61.22
  A 0.93 0.76 -58.0 0 1 435.40 62.17
  L 433.23 67.24
  Q 432.67 68.54 433.76 67.77
  L 439.05 64.04
  A 1.14 1.14 51.1 0 1 440.55 64.20
  L 443.78 67.72
  A 1.34 1.09 -19.4 0 0 444.75 68.07
  C 445.90 68.00 444.08 63.28 443.82 62.30
  A 1.73 1.73 -22.4 0 1 444.63 60.36
  C 445.06 60.12 448.13 58.65 447.80 57.88
  A 0.99 0.58 -4.3 0 0 447.00 57.49
  L 443.00 57.25
  A 1.23 0.96 -8.3 0 1 442.03 56.70
  L 440.09 52.93
  Q 439.41 51.60 438.91 52.93"
/>
<path stroke="#f6c27a" vector-effect="non-scaling-stroke" d="
  M 564.54 148.48
  A 1.87 1.49 -32.4 0 1 565.18 146.63
  L 568.30 144.02
  Q 568.92 143.50 567.99 143.50
  L 564.00 143.50
  A 1.20 0.95 -16.4 0 1 563.16 143.16
  Q 561.60 141.39 561.04 139.04
  C 560.41 136.34 558.36 142.49 558.28 142.66
  A 0.82 0.43 -68.7 0 1 557.67 143.19
  L 553.56 142.63
  Q 551.26 142.32 552.95 144.06
  L 555.78 146.97
  A 0.99 0.97 -57.3 0 1 555.99 148.00
  L 554.13 152.92
  A 0.70 0.43 -63.3 0 0 554.19 153.61
  C 554.57 153.93 559.35 150.49 560.03 150.07
  A 1.13 1.09 -36.0 0 1 561.47 150.27
  Q 568.28 158.34 564.54 148.48"
/>
<path stroke="#f6c27a" vector-effect="non-scaling-stroke" d="
  M 80.76 188.97
  L 87.24 190.09
  Q 90.17 190.59 87.90 188.58
  L 82.21 183.53
  A 0.72 0.61 34.7 0 1 82.00 182.75
  L 84.65 177.17
  Q 85.55 175.25 83.80 176.30
  L 78.02 179.78
  A 1.00 0.97 44.8 0 1 76.99 179.77
  L 71.44 176.31
  Q 70.55 175.76 70.75 176.75
  L 72.04 182.99
  A 0.91 0.65 -22.0 0 1 71.52 183.80
  L 64.96 187.20
  Q 63.97 187.71 65.07 187.94
  L 73.18 189.59
  A 0.93 0.69 87.9 0 1 73.76 190.31
  C 73.76 190.32 75.00 201.26 76.25 197.13
  Q 77.54 192.86 79.98 189.16
  A 0.87 0.48 15.3 0 1 80.76 188.97"
/>
<path stroke="#f6c27a" vector-effect="non-scaling-stroke" d="
  M 63.51 240.03
  L 74.17 236.89
  Q 76.56 236.18 74.17 235.36
  L 63.00 231.50
  A 1.30 1.07 8.1 0 1 62.15 230.57
  L 60.51 219.49
  Q 60.24 217.64 59.07 219.07
  L 51.97 227.72
  A 0.97 0.49 26.2 0 1 51.01 227.73
  L 39.49 223.01
  Q 38.22 222.48 38.91 223.80
  L 45.41 236.29
  A 0.99 0.59 -44.7 0 1 45.18 237.18
  L 37.17 247.18
  Q 35.54 249.21 38.08 248.37
  L 52.75 243.49
  A 0.78 0.77 65.3 0 1 53.65 243.83
  L 60.57 255.16
  Q 61.79 257.15 62.31 254.92
  C 63.27 250.79 62.41 245.07 63.00 240.55
  A 0.74 0.58 -7.6 0 1 63.51 240.03"
/>
<path stroke="#e7c389" vector-effect="non-scaling-stroke" d="
  M 546.40 32.52
  C 537.56 38.51 532.07 48.56 529.70 58.76
  A 0.45 0.38 -84.6 0 0 530.08 59.31
  L 533.72 59.09
  A 0.79 0.59 -83.3 0 0 534.30 58.48
  C 536.69 47.58 545.56 34.36 557.76 33.45
  Q 565.34 32.89 572.61 34.64
  C 585.52 37.76 586.65 46.10 588.67 57.48
  Q 588.78 58.12 589.15 57.66
  L 592.97 52.71
  A 1.48 0.57 79.3 0 0 593.15 51.73
  C 592.51 39.28 585.15 31.86 573.05 29.37
  C 564.75 27.66 553.72 27.56 546.40 32.52"
/>
<path stroke="#c52c27" vector-effect="non-scaling-stroke" d="
  M 133.02 274.66
  Q 108.67 271.22 85.69 279.48
  A 0.46 0.31 65.8 0 1 85.25 279.21
  Q 85.14 278.98 84.75 278.96"
/>
<path stroke="#c52c27" vector-effect="non-scaling-stroke" d="
  M 205.93 315.37
  Q 210.94 323.71 212.79 333.16
  Q 213.11 334.78 213.09 337.91
  C 213.06 341.68 214.16 345.52 213.98 348.89
  Q 213.59 355.88 212.56 362.68"
/>
<path stroke="#dd9798" vector-effect="non-scaling-stroke" d="
  M 212.56 362.68
  Q 207.04 360.43 201.71 360.00"
/>
<path stroke="#ec9689" vector-effect="non-scaling-stroke" d="
  M 201.71 360.00
  Q 201.69 348.00 199.72 341.26
  C 196.88 331.54 190.96 323.00 186.50 313.98
  C 182.93 306.77 178.29 302.80 171.22 298.97
  Q 167.78 297.10 164.36 295.20"
/>
<path stroke="#c52c27" vector-effect="non-scaling-stroke" d="
  M 164.36 295.20
  Q 155.27 290.31 145.25 288.18
  Q 137.77 286.59 134.40 285.65
  C 127.52 283.74 121.13 281.79 113.75 282.47
  Q 103.57 283.40 95.24 284.97
  Q 81.90 287.49 70.89 298.08"
/>
<path stroke="#ec9689" vector-effect="non-scaling-stroke" d="
  M 70.89 298.08
  C 58.40 310.60 45.74 317.65 38.11 332.68
  C 36.59 335.68 35.56 338.92 34.35 342.24
  C 33.13 345.60 30.27 350.55 29.61 355.60"
/>
<path stroke="#dd9798" vector-effect="non-scaling-stroke" d="
  M 29.61 355.60
  Q 23.84 359.17 19.46 364.25"
/>
<path stroke="#d78377" vector-effect="non-scaling-stroke" d="
  M 164.36 295.20
  Q 159.91 293.70 155.50 292.17
  C 145.63 288.74 135.08 286.78 124.95 284.20
  Q 119.53 282.81 113.92 283.33
  C 96.95 284.91 84.25 287.55 70.89 298.08"
/>
<path stroke="#efefe8" vector-effect="non-scaling-stroke" d="
  M 201.71 360.00
  L 189.50 360.46"
/>
<path stroke="#f7c476" vector-effect="non-scaling-stroke" d="
  M 189.50 360.46
  Q 189.44 348.58 187.80 336.82
  Q 187.36 333.73 185.87 330.98
  C 179.39 319.08 172.73 309.61 159.82 303.91
  C 153.13 300.96 146.83 297.85 139.65 296.48
  C 127.43 294.16 112.38 291.62 100.99 293.52
  C 72.52 298.26 49.61 328.34 39.63 353.30"
/>
<path stroke="#efefe8" vector-effect="non-scaling-stroke" d="
  M 39.63 353.30
  L 29.61 355.60"
/>
<path stroke="#e8c685" vector-effect="non-scaling-stroke" d="
  M 189.50 360.46
  Q 182.33 365.35 176.79 372.00"
/>
<path stroke="#f7c476" vector-effect="non-scaling-stroke" d="
  M 176.79 372.00
  C 176.15 364.20 176.40 356.36 175.45 348.80
  Q 174.81 343.77 174.29 338.71
  C 173.98 335.64 169.86 328.48 168.36 326.29
  C 162.88 318.28 156.19 315.72 146.11 311.58
  Q 127.81 304.07 107.75 304.06
  C 92.49 304.06 74.73 317.24 65.49 328.67
  Q 55.91 340.53 49.96 354.75"
/>
<path stroke="#e8c685" vector-effect="non-scaling-stroke" d="
  M 49.96 354.75
  L 39.63 353.30"
/>
<path stroke="#efefe8" vector-effect="non-scaling-stroke" d="
  M 176.79 372.00
  C 178.77 377.60 167.99 376.95 167.20 373.99"
/>
<path stroke="#85b5c2" vector-effect="non-scaling-stroke" d="
  M 167.20 373.99
  C 166.77 356.65 161.62 343.19 150.39 330.51
  C 144.87 324.28 140.11 321.50 132.58 318.42
  Q 122.04 314.11 119.25 313.98
  C 109.83 313.54 97.46 315.31 89.64 320.95
  C 85.61 323.86 82.76 327.62 79.13 330.90
  C 71.03 338.23 64.48 348.57 59.54 358.25"
/>
<path stroke="#efefe8" vector-effect="non-scaling-stroke" d="
  M 59.54 358.25
  Q 58.41 357.81 58.10 358.89
  A 1.05 0.17 -74.9 0 1 57.70 359.77
  Q 55.73 360.35 56.22 358.32
  A 0.51 0.41 -3.8 0 0 55.57 357.86
  Q 54.53 358.14 53.52 357.69
  A 1.88 0.87 10.8 0 1 52.70 357.10
  Q 51.57 355.44 49.56 355.85
  Q 49.30 355.91 49.51 355.75
  Q 49.98 355.40 49.96 354.75"
/>
<path stroke="#76b6d1" vector-effect="non-scaling-stroke" d="
  M 167.20 373.99
  Q 158.38 373.33 152.79 379.50"
/>
<path stroke="#85b5c2" vector-effect="non-scaling-stroke" d="
  M 152.79 379.50
  Q 155.52 365.46 150.15 352.79
  C 143.22 336.45 135.56 331.58 118.06 328.43
  C 109.55 326.90 101.81 326.53 94.97 332.23
  C 82.42 342.68 73.85 350.36 68.31 366.01"
/>
<path stroke="#76b6d1" vector-effect="non-scaling-stroke" d="
  M 68.31 366.01
  Q 65.13 361.92 59.98 359.76
  Q 59.15 359.42 59.54 358.25"
/>
<path stroke="#c88586" vector-effect="non-scaling-stroke" d="
  M 214.29 363.75
  Q 212.85 363.93 212.56 362.68"
/>
<path stroke="#efefe8" vector-effect="non-scaling-stroke" d="
  M 152.79 379.50
  Q 151.79 384.82 152.03 390.29
  A 1.29 1.02 70.7 0 1 151.71 391.21
  Q 150.58 392.30 148.99 392.49
  A 1.52 0.77 -62.0 0 0 148.14 393.09
  Q 144.96 397.12 144.21 402.24
  C 143.35 408.04 147.42 411.23 150.32 415.07
  Q 151.62 416.78 154.10 416.82
  L 164.19 417.00"
/>
<path stroke="#efefe8" vector-effect="non-scaling-stroke" d="
  M 72.94 417.00
  L 79.40 416.83
  Q 82.34 416.75 82.62 414.14
  C 82.91 411.35 83.60 408.55 82.60 405.76
  Q 80.17 399.03 73.93 396.01
  Q 72.01 395.09 72.00 392.96
  C 71.98 387.77 73.60 382.34 72.98 377.83
  Q 72.08 371.33 68.31 366.01"
/>
<path stroke="#f3b8c0" vector-effect="non-scaling-stroke" d="
  M 77.01 375.01
  C 74.04 381.32 83.37 385.02 87.16 376.40
  C 90.93 367.82 95.00 356.40 104.28 352.54
  Q 115.70 347.78 124.78 355.72
  C 130.94 361.11 128.87 373.68 128.21 381.04
  Q 127.97 383.68 128.99 386.12
  Q 129.30 386.88 131.60 387.61
  C 137.09 389.35 139.49 386.08 140.42 381.06
  C 142.43 370.29 144.14 354.54 135.95 346.82
  Q 129.86 341.08 128.20 340.51
  C 111.43 334.82 91.04 340.02 84.37 357.65
  Q 81.01 366.51 77.01 375.01"
/>
<path stroke="#eaf4f9" vector-effect="non-scaling-stroke" d="
  M 224.88 416.58
  Q 229.11 413.73 232.03 409.55
  C 236.79 402.74 231.01 396.73 227.70 392.00
  A 1.67 1.46 -5.2 0 0 226.93 391.44
  C 225.29 390.90 222.16 388.66 220.55 390.31
  A 0.30 0.29 -32.4 0 1 220.06 390.21
  C 217.34 382.74 213.57 371.82 207.61 366.38
  A 0.28 0.16 43.3 0 0 207.31 366.31
  L 207.17 366.44
  A 0.53 0.37 56.2 0 0 207.16 367.00
  Q 211.48 374.79 215.14 382.91
  Q 215.26 383.18 216.73 387.80
  Q 217.94 391.60 221.43 394.70
  A 1.20 0.80 -29.6 0 0 222.52 394.78
  Q 223.93 394.23 225.35 394.91
  Q 227.68 396.03 227.24 398.51
  L 226.05 405.27
  A 2.19 1.81 -5.5 0 1 224.54 406.78
  C 221.46 407.66 212.03 409.82 221.11 413.74
  A 0.67 0.61 -74.3 0 1 221.46 414.44
  Q 221.27 415.75 222.00 416.71"
/>
<path stroke="#eaf4f9" vector-effect="non-scaling-stroke" d="
  M 156.44 414.81
  Q 160.58 416.89 159.80 412.51
  A 0.66 0.64 -1.6 0 0 159.22 411.98
  C 153.89 411.43 147.91 405.04 151.87 399.68
  A 0.94 0.74 -43.8 0 0 152.00 398.76
  L 151.20 397.31
  A 0.59 0.43 -37.6 0 0 150.40 397.33
  C 142.45 404.49 150.18 411.67 156.44 414.81"
/>
</g>
<path fill="#feedd9" d="
  M 0.00 0.00
  L 626.00 0.00
  L 626.00 417.00
  L 198.94 417.00
  L 222.00 416.71
  L 224.88 416.58
  Q 227.62 417.03 230.29 415.95
  A 1.74 1.49 -80.4 0 0 231.02 415.34
  C 233.08 412.25 235.53 409.18 236.10 405.49
  C 237.58 395.89 235.95 384.52 223.80 383.90
  A 1.38 1.37 -88.7 0 1 222.49 382.52
  C 222.48 374.22 219.18 370.14 214.29 363.75
  C 215.17 346.42 216.31 328.79 205.93 315.37
  Q 201.37 307.37 195.10 300.41
  C 189.51 294.20 181.42 289.72 173.74 285.35
  C 165.43 280.61 154.39 278.44 145.18 275.85
  Q 139.20 274.17 133.02 274.66
  Q 108.17 269.76 84.75 278.96
  C 71.31 284.36 57.43 292.15 46.87 302.13
  C 39.63 308.96 35.28 317.00 30.06 324.82
  C 25.52 331.64 22.55 339.26 20.64 348.20
  Q 19.34 354.29 17.51 360.24
  Q 16.83 362.45 19.46 364.25
  L 18.85 366.78
  A 0.48 0.47 17.6 0 1 18.22 367.10
  C 15.38 366.07 3.96 356.83 1.09 357.61
  Q 0.14 357.87 0.00 359.19
  L 0.00 0.00
  Z
  M 504.32 4.43
  L 503.02 1.24
  A 1.21 0.50 72.0 0 0 502.37 0.48
  C 501.80 0.40 500.11 4.47 499.86 4.91
  A 0.74 0.72 19.4 0 1 499.11 5.26
  C 498.34 5.15 494.22 4.17 493.88 4.75
  A 0.89 0.47 42.1 0 0 494.18 5.58
  L 497.52 9.00
  Q 498.66 10.16 497.35 11.84
  Q 496.19 13.35 496.22 15.24
  Q 496.23 16.19 496.92 15.67
  L 501.32 12.34
  A 1.57 1.56 50.2 0 1 503.41 12.53
  Q 504.70 13.92 506.59 15.39
  C 509.21 17.43 506.44 10.56 506.39 10.36
  A 1.61 1.60 -22.5 0 1 507.12 8.62
  C 514.13 4.33 506.97 5.65 505.03 5.09
  A 1.17 1.09 85.9 0 1 504.32 4.43
  Z
  M 520.87 64.97
  Q 520.53 66.52 519.22 65.33
  C 517.69 63.93 514.02 63.98 512.27 64.47
  Q 510.15 65.06 508.12 67.59
  C 504.60 71.97 501.51 74.66 502.21 79.81
  C 504.06 93.52 517.79 91.02 526.95 93.27
  C 531.70 94.44 543.74 93.88 547.61 90.48
  Q 550.91 87.58 551.19 82.24
  C 551.57 74.98 546.77 76.60 545.70 71.09
  Q 544.81 66.53 542.51 62.46
  C 543.95 56.06 550.18 43.88 558.01 43.52
  C 565.69 43.16 571.32 43.73 575.64 50.61
  Q 579.11 56.12 579.29 62.25
  L 577.01 72.80
  A 1.77 1.15 -59.5 0 0 577.05 73.74
  C 581.30 84.23 595.15 78.96 602.77 78.38
  C 607.24 78.03 610.91 74.65 614.59 72.26
  A 1.50 1.39 -8.6 0 0 615.19 71.51
  C 617.05 66.11 615.35 60.05 609.04 59.27
  A 0.83 0.81 -6.2 0 1 608.36 58.74
  C 607.24 55.72 607.96 53.51 604.25 52.21
  Q 603.08 43.85 602.23 40.76
  C 595.78 17.31 559.37 15.01 542.45 25.45
  Q 520.65 38.91 520.87 64.97
  Z
  M 553.48 50.80
  C 548.98 54.33 547.58 61.01 546.97 66.62
  Q 546.74 68.73 548.85 68.47
  C 551.33 68.16 553.02 58.07 555.59 55.56
  C 559.65 51.61 567.14 52.40 568.15 59.06
  Q 568.67 62.52 569.09 66.05
  A 1.40 1.20 -76.0 0 0 569.52 66.91
  C 571.91 68.97 573.76 67.00 573.98 64.45
  Q 574.45 58.94 573.29 55.23
  C 570.57 46.60 559.99 45.69 553.48 50.80
  Z
  M 438.91 52.93
  L 437.48 56.71
  A 1.02 0.52 10.1 0 1 436.49 57.01
  L 431.98 56.47
  Q 430.42 56.28 431.70 57.58
  L 435.28 61.22
  A 0.93 0.76 -58.0 0 1 435.40 62.17
  L 433.23 67.24
  Q 432.67 68.54 433.76 67.77
  L 439.05 64.04
  A 1.14 1.14 51.1 0 1 440.55 64.20
  L 443.78 67.72
  A 1.34 1.09 -19.4 0 0 444.75 68.07
  C 445.90 68.00 444.08 63.28 443.82 62.30
  A 1.73 1.73 -22.4 0 1 444.63 60.36
  C 445.06 60.12 448.13 58.65 447.80 57.88
  A 0.99 0.58 -4.3 0 0 447.00 57.49
  L 443.00 57.25
  A 1.23 0.96 -8.3 0 1 442.03 56.70
  L 440.09 52.93
  Q 439.41 51.60 438.91 52.93
  Z
  M 564.54 148.48
  A 1.87 1.49 -32.4 0 1 565.18 146.63
  L 568.30 144.02
  Q 568.92 143.50 567.99 143.50
  L 564.00 143.50
  A 1.20 0.95 -16.4 0 1 563.16 143.16
  Q 561.60 141.39 561.04 139.04
  C 560.41 136.34 558.36 142.49 558.28 142.66
  A 0.82 0.43 -68.7 0 1 557.67 143.19
  L 553.56 142.63
  Q 551.26 142.32 552.95 144.06
  L 555.78 146.97
  A 0.99 0.97 -57.3 0 1 555.99 148.00
  L 554.13 152.92
  A 0.70 0.43 -63.3 0 0 554.19 153.61
  C 554.57 153.93 559.35 150.49 560.03 150.07
  A 1.13 1.09 -36.0 0 1 561.47 150.27
  Q 568.28 158.34 564.54 148.48
  Z
  M 80.76 188.97
  L 87.24 190.09
  Q 90.17 190.59 87.90 188.58
  L 82.21 183.53
  A 0.72 0.61 34.7 0 1 82.00 182.75
  L 84.65 177.17
  Q 85.55 175.25 83.80 176.30
  L 78.02 179.78
  A 1.00 0.97 44.8 0 1 76.99 179.77
  L 71.44 176.31
  Q 70.55 175.76 70.75 176.75
  L 72.04 182.99
  A 0.91 0.65 -22.0 0 1 71.52 183.80
  L 64.96 187.20
  Q 63.97 187.71 65.07 187.94
  L 73.18 189.59
  A 0.93 0.69 87.9 0 1 73.76 190.31
  C 73.76 190.32 75.00 201.26 76.25 197.13
  Q 77.54 192.86 79.98 189.16
  A 0.87 0.48 15.3 0 1 80.76 188.97
  Z
  M 63.51 240.03
  L 74.17 236.89
  Q 76.56 236.18 74.17 235.36
  L 63.00 231.50
  A 1.30 1.07 8.1 0 1 62.15 230.57
  L 60.51 219.49
  Q 60.24 217.64 59.07 219.07
  L 51.97 227.72
  A 0.97 0.49 26.2 0 1 51.01 227.73
  L 39.49 223.01
  Q 38.22 222.48 38.91 223.80
  L 45.41 236.29
  A 0.99 0.59 -44.7 0 1 45.18 237.18
  L 37.17 247.18
  Q 35.54 249.21 38.08 248.37
  L 52.75 243.49
  A 0.78 0.77 65.3 0 1 53.65 243.83
  L 60.57 255.16
  Q 61.79 257.15 62.31 254.92
  C 63.27 250.79 62.41 245.07 63.00 240.55
  A 0.74 0.58 -7.6 0 1 63.51 240.03
  Z"
/>
<path fill="#ed961a" d="
  M 505.03 5.09
  C 506.97 5.65 514.13 4.33 507.12 8.62
  A 1.61 1.60 -22.5 0 0 506.39 10.36
  C 506.44 10.56 509.21 17.43 506.59 15.39
  Q 504.70 13.92 503.41 12.53
  A 1.57 1.56 50.2 0 0 501.32 12.34
  L 496.92 15.67
  Q 496.23 16.19 496.22 15.24
  Q 496.19 13.35 497.35 11.84
  Q 498.66 10.16 497.52 9.00
  L 494.18 5.58
  A 0.89 0.47 42.1 0 1 493.88 4.75
  C 494.22 4.17 498.34 5.15 499.11 5.26
  A 0.74 0.72 19.4 0 0 499.86 4.91
  C 500.11 4.47 501.80 0.40 502.37 0.48
  A 1.21 0.50 72.0 0 1 503.02 1.24
  L 504.32 4.43
  A 1.17 1.09 85.9 0 0 505.03 5.09
  Z"
/>
<path fill="#d93e39" d="
  M 604.25 52.21
  Q 601.94 50.92 599.30 51.37
  A 0.54 0.53 -10.9 0 1 598.69 50.97
  Q 596.62 41.88 589.08 32.88
  Q 584.23 27.09 575.47 25.78
  C 559.86 23.45 548.42 22.96 537.43 35.93
  C 533.65 40.39 529.15 44.86 527.55 50.52
  Q 526.60 53.89 525.18 60.83
  A 1.60 1.15 82.9 0 1 524.73 61.66
  L 520.87 64.97
  Q 520.65 38.91 542.45 25.45
  C 559.37 15.01 595.78 17.31 602.23 40.76
  Q 603.08 43.85 604.25 52.21
  Z"
/>
<path fill="#e0f0f7" d="
  M 604.25 52.21
  C 607.96 53.51 607.24 55.72 608.36 58.74
  A 0.83 0.81 -6.2 0 0 609.04 59.27
  C 615.35 60.05 617.05 66.11 615.19 71.51
  A 1.50 1.39 -8.6 0 1 614.59 72.26
  C 610.91 74.65 607.24 78.03 602.77 78.38
  C 595.15 78.96 581.30 84.23 577.05 73.74
  A 1.77 1.15 -59.5 0 1 577.01 72.80
  L 579.29 62.25
  Q 581.37 60.16 584.25 59.33
  A 0.56 0.53 -13.1 0 0 584.65 58.72
  C 581.98 44.08 567.64 32.96 553.15 39.34
  C 545.90 42.53 540.78 52.57 538.42 59.70
  A 0.62 0.56 24.5 0 0 538.72 60.39
  L 542.51 62.46
  Q 544.81 66.53 545.70 71.09
  C 546.77 76.60 551.57 74.98 551.19 82.24
  Q 550.91 87.58 547.61 90.48
  C 543.74 93.88 531.70 94.44 526.95 93.27
  C 517.79 91.02 504.06 93.52 502.21 79.81
  C 501.51 74.66 504.60 71.97 508.12 67.59
  Q 510.15 65.06 512.27 64.47
  C 514.02 63.98 517.69 63.93 519.22 65.33
  Q 520.53 66.52 520.87 64.97
  L 524.73 61.66
  A 1.60 1.15 82.9 0 0 525.18 60.83
  Q 526.60 53.89 527.55 50.52
  C 529.15 44.86 533.65 40.39 537.43 35.93
  C 548.42 22.96 559.86 23.45 575.47 25.78
  Q 584.23 27.09 589.08 32.88
  Q 596.62 41.88 598.69 50.97
  A 0.54 0.53 -10.9 0 0 599.30 51.37
  Q 601.94 50.92 604.25 52.21
  Z
  M 546.40 32.52
  C 537.56 38.51 532.07 48.56 529.70 58.76
  A 0.45 0.38 -84.6 0 0 530.08 59.31
  L 533.72 59.09
  A 0.79 0.59 -83.3 0 0 534.30 58.48
  C 536.69 47.58 545.56 34.36 557.76 33.45
  Q 565.34 32.89 572.61 34.64
  C 585.52 37.76 586.65 46.10 588.67 57.48
  Q 588.78 58.12 589.15 57.66
  L 592.97 52.71
  A 1.48 0.57 79.3 0 0 593.15 51.73
  C 592.51 39.28 585.15 31.86 573.05 29.37
  C 564.75 27.66 553.72 27.56 546.40 32.52
  Z"
/>
<path fill="#ed961a" d="
  M 529.70 58.76
  C 532.07 48.56 537.56 38.51 546.40 32.52
  C 553.72 27.56 564.75 27.66 573.05 29.37
  C 585.15 31.86 592.51 39.28 593.15 51.73
  A 1.48 0.57 79.3 0 1 592.97 52.71
  L 589.15 57.66
  Q 588.78 58.12 588.67 57.48
  C 586.65 46.10 585.52 37.76 572.61 34.64
  Q 565.34 32.89 557.76 33.45
  C 545.56 34.36 536.69 47.58 534.30 58.48
  A 0.79 0.59 -83.3 0 1 533.72 59.09
  L 530.08 59.31
  A 0.45 0.38 -84.6 0 1 529.70 58.76
  Z"
/>
<path fill="#127aa5" d="
  M 579.29 62.25
  Q 579.11 56.12 575.64 50.61
  C 571.32 43.73 565.69 43.16 558.01 43.52
  C 550.18 43.88 543.95 56.06 542.51 62.46
  L 538.72 60.39
  A 0.62 0.56 24.5 0 1 538.42 59.70
  C 540.78 52.57 545.90 42.53 553.15 39.34
  C 567.64 32.96 581.98 44.08 584.65 58.72
  A 0.56 0.53 -13.1 0 1 584.25 59.33
  Q 581.37 60.16 579.29 62.25
  Z"
/>
<path fill="#e783a6" d="
  M 553.48 50.80
  C 559.99 45.69 570.57 46.60 573.29 55.23
  Q 574.45 58.94 573.98 64.45
  C 573.76 67.00 571.91 68.97 569.52 66.91
  A 1.40 1.20 -76.0 0 1 569.09 66.05
  Q 568.67 62.52 568.15 59.06
  C 567.14 52.40 559.65 51.61 555.59 55.56
  C 553.02 58.07 551.33 68.16 548.85 68.47
  Q 546.74 68.73 546.97 66.62
  C 547.58 61.01 548.98 54.33 553.48 50.80
  Z"
/>
<path fill="#ed961a" d="
  M 438.91 52.93
  Q 439.41 51.60 440.09 52.93
  L 442.03 56.70
  A 1.23 0.96 -8.3 0 0 443.00 57.25
  L 447.00 57.49
  A 0.99 0.58 -4.3 0 1 447.80 57.88
  C 448.13 58.65 445.06 60.12 444.63 60.36
  A 1.73 1.73 -22.4 0 0 443.82 62.30
  C 444.08 63.28 445.90 68.00 444.75 68.07
  A 1.34 1.09 -19.4 0 1 443.78 67.72
  L 440.55 64.20
  A 1.14 1.14 51.1 0 0 439.05 64.04
  L 433.76 67.77
  Q 432.67 68.54 433.23 67.24
  L 435.40 62.17
  A 0.93 0.76 -58.0 0 0 435.28 61.22
  L 431.70 57.58
  Q 430.42 56.28 431.98 56.47
  L 436.49 57.01
  A 1.02 0.52 10.1 0 0 437.48 56.71
  L 438.91 52.93
  Z"
/>
<path fill="#ed961a" d="
  M 564.54 148.48
  Q 568.28 158.34 561.47 150.27
  A 1.13 1.09 -36.0 0 0 560.03 150.07
  C 559.35 150.49 554.57 153.93 554.19 153.61
  A 0.70 0.43 -63.3 0 1 554.13 152.92
  L 555.99 148.00
  A 0.99 0.97 -57.3 0 0 555.78 146.97
  L 552.95 144.06
  Q 551.26 142.32 553.56 142.63
  L 557.67 143.19
  A 0.82 0.43 -68.7 0 0 558.28 142.66
  C 558.36 142.49 560.41 136.34 561.04 139.04
  Q 561.60 141.39 563.16 143.16
  A 1.20 0.95 -16.4 0 0 564.00 143.50
  L 567.99 143.50
  Q 568.92 143.50 568.30 144.02
  L 565.18 146.63
  A 1.87 1.49 -32.4 0 0 564.54 148.48
  Z"
/>
<path fill="#ed961a" d="
  M 79.98 189.16
  Q 77.54 192.86 76.25 197.13
  C 75.00 201.26 73.76 190.32 73.76 190.31
  A 0.93 0.69 87.9 0 0 73.18 189.59
  L 65.07 187.94
  Q 63.97 187.71 64.96 187.20
  L 71.52 183.80
  A 0.91 0.65 -22.0 0 0 72.04 182.99
  L 70.75 176.75
  Q 70.55 175.76 71.44 176.31
  L 76.99 179.77
  A 1.00 0.97 44.8 0 0 78.02 179.78
  L 83.80 176.30
  Q 85.55 175.25 84.65 177.17
  L 82.00 182.75
  A 0.72 0.61 34.7 0 0 82.21 183.53
  L 87.90 188.58
  Q 90.17 190.59 87.24 190.09
  L 80.76 188.97
  A 0.87 0.48 15.3 0 0 79.98 189.16
  Z"
/>
<path fill="#ed961a" d="
  M 63.00 240.55
  C 62.41 245.07 63.27 250.79 62.31 254.92
  Q 61.79 257.15 60.57 255.16
  L 53.65 243.83
  A 0.78 0.77 65.3 0 0 52.75 243.49
  L 38.08 248.37
  Q 35.54 249.21 37.17 247.18
  L 45.18 237.18
  A 0.99 0.59 -44.7 0 0 45.41 236.29
  L 38.91 223.80
  Q 38.22 222.48 39.49 223.01
  L 51.01 227.73
  A 0.97 0.49 26.2 0 0 51.97 227.72
  L 59.07 219.07
  Q 60.24 217.64 60.51 219.49
  L 62.15 230.57
  A 1.30 1.07 8.1 0 0 63.00 231.50
  L 74.17 235.36
  Q 76.56 236.18 74.17 236.89
  L 63.51 240.03
  A 0.74 0.58 -7.6 0 0 63.00 240.55
  Z"
/>
<path fill="#b01914" d="
  M 133.02 274.66
  Q 108.67 271.22 85.69 279.48
  A 0.46 0.31 65.8 0 1 85.25 279.21
  Q 85.14 278.98 84.75 278.96
  Q 108.17 269.76 133.02 274.66
  Z"
/>
<path fill="#d93e39" d="
  M 133.02 274.66
  Q 139.20 274.17 145.18 275.85
  C 154.39 278.44 165.43 280.61 173.74 285.35
  C 181.42 289.72 189.51 294.20 195.10 300.41
  Q 201.37 307.37 205.93 315.37
  Q 210.94 323.71 212.79 333.16
  Q 213.11 334.78 213.09 337.91
  C 213.06 341.68 214.16 345.52 213.98 348.89
  Q 213.59 355.88 212.56 362.68
  Q 207.04 360.43 201.71 360.00
  Q 201.69 348.00 199.72 341.26
  C 196.88 331.54 190.96 323.00 186.50 313.98
  C 182.93 306.77 178.29 302.80 171.22 298.97
  Q 167.78 297.10 164.36 295.20
  Q 155.27 290.31 145.25 288.18
  Q 137.77 286.59 134.40 285.65
  C 127.52 283.74 121.13 281.79 113.75 282.47
  Q 103.57 283.40 95.24 284.97
  Q 81.90 287.49 70.89 298.08
  C 58.40 310.60 45.74 317.65 38.11 332.68
  C 36.59 335.68 35.56 338.92 34.35 342.24
  C 33.13 345.60 30.27 350.55 29.61 355.60
  Q 23.84 359.17 19.46 364.25
  Q 16.83 362.45 17.51 360.24
  Q 19.34 354.29 20.64 348.20
  C 22.55 339.26 25.52 331.64 30.06 324.82
  C 35.28 317.00 39.63 308.96 46.87 302.13
  C 57.43 292.15 71.31 284.36 84.75 278.96
  Q 85.14 278.98 85.25 279.21
  A 0.46 0.31 65.8 0 0 85.69 279.48
  Q 108.67 271.22 133.02 274.66
  Z"
/>
<path fill="#b01914" d="
  M 164.36 295.20
  Q 159.91 293.70 155.50 292.17
  C 145.63 288.74 135.08 286.78 124.95 284.20
  Q 119.53 282.81 113.92 283.33
  C 96.95 284.91 84.25 287.55 70.89 298.08
  Q 81.90 287.49 95.24 284.97
  Q 103.57 283.40 113.75 282.47
  C 121.13 281.79 127.52 283.74 134.40 285.65
  Q 137.77 286.59 145.25 288.18
  Q 155.27 290.31 164.36 295.20
  Z"
/>
<path fill="#feedd9" d="
  M 164.36 295.20
  Q 167.78 297.10 171.22 298.97
  C 178.29 302.80 182.93 306.77 186.50 313.98
  C 190.96 323.00 196.88 331.54 199.72 341.26
  Q 201.69 348.00 201.71 360.00
  L 189.50 360.46
  Q 189.44 348.58 187.80 336.82
  Q 187.36 333.73 185.87 330.98
  C 179.39 319.08 172.73 309.61 159.82 303.91
  C 153.13 300.96 146.83 297.85 139.65 296.48
  C 127.43 294.16 112.38 291.62 100.99 293.52
  C 72.52 298.26 49.61 328.34 39.63 353.30
  L 29.61 355.60
  C 30.27 350.55 33.13 345.60 34.35 342.24
  C 35.56 338.92 36.59 335.68 38.11 332.68
  C 45.74 317.65 58.40 310.60 70.89 298.08
  C 84.25 287.55 96.95 284.91 113.92 283.33
  Q 119.53 282.81 124.95 284.20
  C 135.08 286.78 145.63 288.74 155.50 292.17
  Q 159.91 293.70 164.36 295.20
  Z"
/>
<path fill="#ef9b12" d="
  M 189.50 360.46
  Q 182.33 365.35 176.79 372.00
  C 176.15 364.20 176.40 356.36 175.45 348.80
  Q 174.81 343.77 174.29 338.71
  C 173.98 335.64 169.86 328.48 168.36 326.29
  C 162.88 318.28 156.19 315.72 146.11 311.58
  Q 127.81 304.07 107.75 304.06
  C 92.49 304.06 74.73 317.24 65.49 328.67
  Q 55.91 340.53 49.96 354.75
  L 39.63 353.30
  C 49.61 328.34 72.52 298.26 100.99 293.52
  C 112.38 291.62 127.43 294.16 139.65 296.48
  C 146.83 297.85 153.13 300.96 159.82 303.91
  C 172.73 309.61 179.39 319.08 185.87 330.98
  Q 187.36 333.73 187.80 336.82
  Q 189.44 348.58 189.50 360.46
  Z"
/>
<path fill="#feedd9" d="
  M 176.79 372.00
  C 178.77 377.60 167.99 376.95 167.20 373.99
  C 166.77 356.65 161.62 343.19 150.39 330.51
  C 144.87 324.28 140.11 321.50 132.58 318.42
  Q 122.04 314.11 119.25 313.98
  C 109.83 313.54 97.46 315.31 89.64 320.95
  C 85.61 323.86 82.76 327.62 79.13 330.90
  C 71.03 338.23 64.48 348.57 59.54 358.25
  Q 58.41 357.81 58.10 358.89
  A 1.05 0.17 -74.9 0 1 57.70 359.77
  Q 55.73 360.35 56.22 358.32
  A 0.51 0.41 -3.8 0 0 55.57 357.86
  Q 54.53 358.14 53.52 357.69
  A 1.88 0.87 10.8 0 1 52.70 357.10
  Q 51.57 355.44 49.56 355.85
  Q 49.30 355.91 49.51 355.75
  Q 49.98 355.40 49.96 354.75
  Q 55.91 340.53 65.49 328.67
  C 74.73 317.24 92.49 304.06 107.75 304.06
  Q 127.81 304.07 146.11 311.58
  C 156.19 315.72 162.88 318.28 168.36 326.29
  C 169.86 328.48 173.98 335.64 174.29 338.71
  Q 174.81 343.77 175.45 348.80
  C 176.40 356.36 176.15 364.20 176.79 372.00
  Z"
/>
<path fill="#0b7caa" d="
  M 167.20 373.99
  Q 158.38 373.33 152.79 379.50
  Q 155.52 365.46 150.15 352.79
  C 143.22 336.45 135.56 331.58 118.06 328.43
  C 109.55 326.90 101.81 326.53 94.97 332.23
  C 82.42 342.68 73.85 350.36 68.31 366.01
  Q 65.13 361.92 59.98 359.76
  Q 59.15 359.42 59.54 358.25
  C 64.48 348.57 71.03 338.23 79.13 330.90
  C 82.76 327.62 85.61 323.86 89.64 320.95
  C 97.46 315.31 109.83 313.54 119.25 313.98
  Q 122.04 314.11 132.58 318.42
  C 140.11 321.50 144.87 324.28 150.39 330.51
  C 161.62 343.19 166.77 356.65 167.20 373.99
  Z"
/>
<path fill="#b01914" d="
  M 205.93 315.37
  C 216.31 328.79 215.17 346.42 214.29 363.75
  Q 212.85 363.93 212.56 362.68
  Q 213.59 355.88 213.98 348.89
  C 214.16 345.52 213.06 341.68 213.09 337.91
  Q 213.11 334.78 212.79 333.16
  Q 210.94 323.71 205.93 315.37
  Z"
/>
<path fill="#feedd9" d="
  M 152.79 379.50
  Q 151.79 384.82 152.03 390.29
  A 1.29 1.02 70.7 0 1 151.71 391.21
  Q 150.58 392.30 148.99 392.49
  A 1.52 0.77 -62.0 0 0 148.14 393.09
  Q 144.96 397.12 144.21 402.24
  C 143.35 408.04 147.42 411.23 150.32 415.07
  Q 151.62 416.78 154.10 416.82
  L 164.19 417.00
  L 72.94 417.00
  L 79.40 416.83
  Q 82.34 416.75 82.62 414.14
  C 82.91 411.35 83.60 408.55 82.60 405.76
  Q 80.17 399.03 73.93 396.01
  Q 72.01 395.09 72.00 392.96
  C 71.98 387.77 73.60 382.34 72.98 377.83
  Q 72.08 371.33 68.31 366.01
  C 73.85 350.36 82.42 342.68 94.97 332.23
  C 101.81 326.53 109.55 326.90 118.06 328.43
  C 135.56 331.58 143.22 336.45 150.15 352.79
  Q 155.52 365.46 152.79 379.50
  Z
  M 77.01 375.01
  C 74.04 381.32 83.37 385.02 87.16 376.40
  C 90.93 367.82 95.00 356.40 104.28 352.54
  Q 115.70 347.78 124.78 355.72
  C 130.94 361.11 128.87 373.68 128.21 381.04
  Q 127.97 383.68 128.99 386.12
  Q 129.30 386.88 131.60 387.61
  C 137.09 389.35 139.49 386.08 140.42 381.06
  C 142.43 370.29 144.14 354.54 135.95 346.82
  Q 129.86 341.08 128.20 340.51
  C 111.43 334.82 91.04 340.02 84.37 357.65
  Q 81.01 366.51 77.01 375.01
  Z"
/>
<path fill="#e783a6" d="
  M 87.16 376.40
  C 83.37 385.02 74.04 381.32 77.01 375.01
  Q 81.01 366.51 84.37 357.65
  C 91.04 340.02 111.43 334.82 128.20 340.51
  Q 129.86 341.08 135.95 346.82
  C 144.14 354.54 142.43 370.29 140.42 381.06
  C 139.49 386.08 137.09 389.35 131.60 387.61
  Q 129.30 386.88 128.99 386.12
  Q 127.97 383.68 128.21 381.04
  C 128.87 373.68 130.94 361.11 124.78 355.72
  Q 115.70 347.78 104.28 352.54
  C 95.00 356.40 90.93 367.82 87.16 376.40
  Z"
/>
<path fill="#e0f0f7" d="
  M 39.63 353.30
  L 49.96 354.75
  Q 49.98 355.40 49.51 355.75
  Q 49.30 355.91 49.56 355.85
  Q 51.57 355.44 52.70 357.10
  A 1.88 0.87 10.8 0 0 53.52 357.69
  Q 54.53 358.14 55.57 357.86
  A 0.51 0.41 -3.8 0 1 56.22 358.32
  Q 55.73 360.35 57.70 359.77
  A 1.05 0.17 -74.9 0 0 58.10 358.89
  Q 58.41 357.81 59.54 358.25
  Q 59.15 359.42 59.98 359.76
  Q 65.13 361.92 68.31 366.01
  Q 72.08 371.33 72.98 377.83
  C 73.60 382.34 71.98 387.77 72.00 392.96
  Q 72.01 395.09 73.93 396.01
  Q 80.17 399.03 82.60 405.76
  C 83.60 408.55 82.91 411.35 82.62 414.14
  Q 82.34 416.75 79.40 416.83
  L 72.94 417.00
  L 0.00 417.00
  L 0.00 359.19
  Q 0.14 357.87 1.09 357.61
  C 3.96 356.83 15.38 366.07 18.22 367.10
  A 0.48 0.47 17.6 0 0 18.85 366.78
  L 19.46 364.25
  Q 23.84 359.17 29.61 355.60
  L 39.63 353.30
  Z"
/>
<path fill="#e0f0f7" d="
  M 201.71 360.00
  Q 207.04 360.43 212.56 362.68
  Q 212.85 363.93 214.29 363.75
  C 219.18 370.14 222.48 374.22 222.49 382.52
  A 1.38 1.37 -88.7 0 0 223.80 383.90
  C 235.95 384.52 237.58 395.89 236.10 405.49
  C 235.53 409.18 233.08 412.25 231.02 415.34
  A 1.74 1.49 -80.4 0 1 230.29 415.95
  Q 227.62 417.03 224.88 416.58
  Q 229.11 413.73 232.03 409.55
  C 236.79 402.74 231.01 396.73 227.70 392.00
  A 1.67 1.46 -5.2 0 0 226.93 391.44
  C 225.29 390.90 222.16 388.66 220.55 390.31
  A 0.30 0.29 -32.4 0 1 220.06 390.21
  C 217.34 382.74 213.57 371.82 207.61 366.38
  A 0.28 0.16 43.3 0 0 207.31 366.31
  L 207.17 366.44
  A 0.53 0.37 56.2 0 0 207.16 367.00
  Q 211.48 374.79 215.14 382.91
  Q 215.26 383.18 216.73 387.80
  Q 217.94 391.60 221.43 394.70
  A 1.20 0.80 -29.6 0 0 222.52 394.78
  Q 223.93 394.23 225.35 394.91
  Q 227.68 396.03 227.24 398.51
  L 226.05 405.27
  A 2.19 1.81 -5.5 0 1 224.54 406.78
  C 221.46 407.66 212.03 409.82 221.11 413.74
  A 0.67 0.61 -74.3 0 1 221.46 414.44
  Q 221.27 415.75 222.00 416.71
  L 198.94 417.00
  L 164.19 417.00
  L 154.10 416.82
  Q 151.62 416.78 150.32 415.07
  C 147.42 411.23 143.35 408.04 144.21 402.24
  Q 144.96 397.12 148.14 393.09
  A 1.52 0.77 -62.0 0 1 148.99 392.49
  Q 150.58 392.30 151.71 391.21
  A 1.29 1.02 70.7 0 0 152.03 390.29
  Q 151.79 384.82 152.79 379.50
  Q 158.38 373.33 167.20 373.99
  C 167.99 376.95 178.77 377.60 176.79 372.00
  Q 182.33 365.35 189.50 360.46
  L 201.71 360.00
  Z
  M 156.44 414.81
  Q 160.58 416.89 159.80 412.51
  A 0.66 0.64 -1.6 0 0 159.22 411.98
  C 153.89 411.43 147.91 405.04 151.87 399.68
  A 0.94 0.74 -43.8 0 0 152.00 398.76
  L 151.20 397.31
  A 0.59 0.43 -37.6 0 0 150.40 397.33
  C 142.45 404.49 150.18 411.67 156.44 414.81
  Z"
/>
<path fill="#f3f7fb" d="
  M 224.88 416.58
  L 222.00 416.71
  Q 221.27 415.75 221.46 414.44
  A 0.67 0.61 -74.3 0 0 221.11 413.74
  C 212.03 409.82 221.46 407.66 224.54 406.78
  A 2.19 1.81 -5.5 0 0 226.05 405.27
  L 227.24 398.51
  Q 227.68 396.03 225.35 394.91
  Q 223.93 394.23 222.52 394.78
  A 1.20 0.80 -29.6 0 1 221.43 394.70
  Q 217.94 391.60 216.73 387.80
  Q 215.26 383.18 215.14 382.91
  Q 211.48 374.79 207.16 367.00
  A 0.53 0.37 56.2 0 1 207.17 366.44
  L 207.31 366.31
  A 0.28 0.16 43.3 0 1 207.61 366.38
  C 213.57 371.82 217.34 382.74 220.06 390.21
  A 0.30 0.29 -32.4 0 0 220.55 390.31
  C 222.16 388.66 225.29 390.90 226.93 391.44
  A 1.67 1.46 -5.2 0 1 227.70 392.00
  C 231.01 396.73 236.79 402.74 232.03 409.55
  Q 229.11 413.73 224.88 416.58
  Z"
/>
<path fill="#f3f7fb" d="
  M 156.44 414.81
  C 150.18 411.67 142.45 404.49 150.40 397.33
  A 0.59 0.43 -37.6 0 1 151.20 397.31
  L 152.00 398.76
  A 0.94 0.74 -43.8 0 1 151.87 399.68
  C 147.91 405.04 153.89 411.43 159.22 411.98
  A 0.66 0.64 -1.6 0 1 159.80 412.51
  Q 160.58 416.89 156.44 414.81
  Z"
/>
</svg>
