<?xml version="1.0" standalone="no"?>
<!DOCTYPE svg PUBLIC "-//W3C//DTD SVG 20010904//EN"
 "http://www.w3.org/TR/2001/REC-SVG-20010904/DTD/svg10.dtd">
<svg version="1.0" xmlns="http://www.w3.org/2000/svg"
 width="826.000000pt" height="551.000000pt" viewBox="0 0 826.000000 551.000000"
 preserveAspectRatio="xMidYMid meet">

<g transform="translate(0.000000,551.000000) scale(0.100000,-0.100000)"
fill="#000000" stroke="none">
<path d="M7306 5234 c-32 -8 -84 -28 -115 -44 -60 -32 -165 -118 -200 -162
-31 -38 -86 -155 -99 -208 -14 -59 -23 -160 -13 -160 21 0 50 52 61 110 18 92
40 133 124 236 83 102 126 134 217 163 129 43 384 10 463 -59 51 -46 132 -172
146 -229 12 -49 13 -51 47 -51 32 0 34 2 29 28 -3 15 -8 47 -12 71 -11 74 -33
113 -102 183 -53 54 -80 73 -132 93 -121 45 -295 58 -414 29z"/>
<path d="M7340 5004 c-94 -35 -143 -85 -201 -207 -35 -75 -36 -81 -4 -95 21
-10 25 -9 25 4 0 58 113 208 169 224 48 13 120 13 162 -1 69 -23 146 -126 151
-203 3 -31 5 -33 19 -20 8 8 23 14 32 14 22 0 21 20 0 83 -23 65 -108 159
-165 182 -43 17 -161 29 -188 19z"/>
<path d="M1352 1889 c-233 -36 -592 -226 -755 -398 -65 -70 -194 -257 -244
-354 -40 -79 -70 -167 -83 -238 -6 -35 -18 -84 -26 -107 -13 -35 -14 -49 -5
-70 l12 -26 22 26 c12 15 41 38 65 53 24 14 45 34 48 43 3 9 19 51 35 92 17
41 37 98 46 125 8 28 23 61 32 75 9 14 25 42 36 64 26 50 133 169 187 208 24
17 72 58 108 93 105 101 175 152 274 200 105 51 178 69 353 87 l122 12 233
-58 c228 -56 306 -83 438 -149 125 -62 167 -108 242 -260 22 -45 52 -102 68
-127 58 -94 100 -249 100 -367 l0 -60 53 -7 c28 -4 67 -16 85 -26 l33 -20 -2
187 c-2 264 -26 348 -152 519 -101 137 -165 199 -278 267 -58 35 -120 73 -136
85 -17 12 -39 22 -50 22 -10 0 -38 6 -63 14 -145 47 -253 77 -315 86 -101 15
-409 21 -483 9z"/>
<path d="M1420 1350 c-31 -4 -92 -19 -137 -34 -78 -26 -87 -32 -185 -129 -57
-56 -126 -130 -154 -164 -53 -68 -154 -231 -154 -250 0 -6 9 -15 20 -18 12 -4
36 -22 55 -41 l34 -34 35 76 c46 98 114 193 178 246 28 24 77 66 109 94 85 74
114 86 222 87 160 1 373 -71 430 -145 12 -15 31 -41 43 -56 32 -41 91 -189
105 -260 7 -36 9 -95 6 -138 -4 -55 -3 -72 6 -67 7 4 27 17 46 30 22 15 48 23
77 23 l44 0 0 54 c0 72 -41 239 -75 307 -71 139 -191 278 -282 326 -32 17
-104 47 -159 67 -105 37 -146 41 -264 26z"/>
</g>
</svg>
